# MagicaVoxel @ Ephtracy

# group
o 

# material
mtllib estrada.mtl
usemtl palette

# normals
vn -1 0 0
vn 1 0 0
vn 0 0 1
vn 0 0 -1
vn 0 -1 0
vn 0 1 0

# texcoords
vt 0.0175781 0.5
vt 0.958984 0.5
vt 0.994141 0.5

# verts
v -1.6 0 1.6
v -1.6 0 1.3
v -1.6 0 0.1
v -1.6 0 -0.1
v -1.6 0 -1.3
v -1.6 0 -1.6
v -1.6 0.1 1.6
v -1.6 0.1 1.3
v -1.6 0.1 0.1
v -1.6 0.1 -0.1
v -1.6 0.1 -1.3
v -1.6 0.1 -1.6
v 1.6 0 1.6
v 1.6 0 1.3
v 1.6 0 0.1
v 1.6 0 -0.1
v 1.6 0 -1.3
v 1.6 0 -1.6
v 1.6 0.1 1.6
v 1.6 0.1 1.3
v 1.6 0.1 0.1
v 1.6 0.1 -0.1
v 1.6 0.1 -1.3
v 1.6 0.1 -1.6
v -1.6 0 1.6
v -1.6 0.1 1.6
v 1.6 0 1.6
v 1.6 0.1 1.6
v -1.6 0 -1.6
v -1.6 0.1 -1.6
v 1.6 0 -1.6
v 1.6 0.1 -1.6
v -1.6 0 1.6
v 1.6 0 1.6
v -1.6 0 1.3
v 1.6 0 1.3
v -1.6 0 0.1
v -0.2 0 0.1
v 0.3 0 0.1
v 1.6 0 0.1
v -1.6 0 -0.1
v -0.2 0 -0.1
v 0.3 0 -0.1
v 1.6 0 -0.1
v -1.6 0 -1.3
v 1.6 0 -1.3
v -1.6 0 -1.6
v 1.6 0 -1.6
v -1.6 0.1 1.6
v 1.6 0.1 1.6
v -1.6 0.1 1.3
v 1.6 0.1 1.3
v -1.6 0.1 0.1
v -0.2 0.1 0.1
v 0.3 0.1 0.1
v 1.6 0.1 0.1
v -1.6 0.1 -0.1
v -0.2 0.1 -0.1
v 0.3 0.1 -0.1
v 1.6 0.1 -0.1
v -1.6 0.1 -1.3
v 1.6 0.1 -1.3
v -1.6 0.1 -1.6
v 1.6 0.1 -1.6

# faces
f 7/2/1 2/2/1 1/2/1
f 8/3/1 3/3/1 2/3/1
f 8/2/1 2/2/1 7/2/1
f 9/1/1 4/1/1 3/1/1
f 9/3/1 3/3/1 8/3/1
f 10/3/1 5/3/1 4/3/1
f 10/1/1 4/1/1 9/1/1
f 11/2/1 6/2/1 5/2/1
f 11/3/1 5/3/1 10/3/1
f 12/2/1 6/2/1 11/2/1
f 13/2/2 14/2/2 19/2/2
f 14/3/2 15/3/2 20/3/2
f 19/2/2 14/2/2 20/2/2
f 15/1/2 16/1/2 21/1/2
f 20/3/2 15/3/2 21/3/2
f 16/3/2 17/3/2 22/3/2
f 21/1/2 16/1/2 22/1/2
f 17/2/2 18/2/2 23/2/2
f 22/3/2 17/3/2 23/3/2
f 23/2/2 18/2/2 24/2/2
f 27/2/3 26/2/3 25/2/3
f 28/2/3 26/2/3 27/2/3
f 29/2/4 30/2/4 31/2/4
f 31/2/4 30/2/4 32/2/4
f 35/2/5 34/2/5 33/2/5
f 36/2/5 34/2/5 35/2/5
f 37/3/5 36/3/5 35/3/5
f 38/3/5 36/3/5 37/3/5
f 39/3/5 36/3/5 38/3/5
f 40/3/5 36/3/5 39/3/5
f 41/1/5 38/1/5 37/1/5
f 42/3/5 39/3/5 38/3/5
f 42/1/5 38/1/5 41/1/5
f 43/1/5 40/1/5 39/1/5
f 43/3/5 39/3/5 42/3/5
f 44/1/5 40/1/5 43/1/5
f 45/3/5 42/3/5 41/3/5
f 45/3/5 43/3/5 42/3/5
f 45/3/5 44/3/5 43/3/5
f 46/3/5 44/3/5 45/3/5
f 47/2/5 46/2/5 45/2/5
f 48/2/5 46/2/5 47/2/5
f 49/2/6 50/2/6 51/2/6
f 51/2/6 50/2/6 52/2/6
f 51/3/6 52/3/6 53/3/6
f 53/3/6 52/3/6 54/3/6
f 54/3/6 52/3/6 55/3/6
f 55/3/6 52/3/6 56/3/6
f 53/1/6 54/1/6 57/1/6
f 54/3/6 55/3/6 58/3/6
f 57/1/6 54/1/6 58/1/6
f 55/1/6 56/1/6 59/1/6
f 58/3/6 55/3/6 59/3/6
f 59/1/6 56/1/6 60/1/6
f 57/3/6 58/3/6 61/3/6
f 58/3/6 59/3/6 61/3/6
f 59/3/6 60/3/6 61/3/6
f 61/3/6 60/3/6 62/3/6
f 61/2/6 62/2/6 63/2/6
f 63/2/6 62/2/6 64/2/6
